Coordinates
version=1
nRows=38
nColumns=38
inDegrees=no

Units are S.I. units (second, meters, Newtons, ...)
If the header above contains a line with 'inDegrees', this indicates whether rotational values are in degrees (yes) or radians (no).

endheader
time	pelvis_tilt	pelvis_list	pelvis_rotation	pelvis_tx	pelvis_ty	pelvis_tz	hip_flexion_r	hip_adduction_r	hip_rotation_r	knee_angle_r	ankle_angle_r	subtalar_angle_r	mtp_angle_r	hip_flexion_l	hip_adduction_l	hip_rotation_l	knee_angle_l	ankle_angle_l	subtalar_angle_l	mtp_angle_l	lumbar_extension	lumbar_bending	lumbar_rotation	arm_flex_r	arm_add_r	arm_rot_r	elbow_flex_r	pro_sup_r	wrist_flex_r	wrist_dev_r	arm_flex_l	arm_add_l	arm_rot_l	elbow_flex_l	pro_sup_l	wrist_flex_l	wrist_dev_l
0.65	-1.0422	1.34989	2.63663	0.628677	0.390852	1.01567	0.576495	-0.2963	0.259217	1.46706	-0.343659	0	0	0.217781	0.178247	-0.304444	0.356816	-0.182124	0	0	-0.105197	-0.227941	0.199076	0.00122074	-0.49407	0.877305	0.740409	0.583043	0	0	0.13259	-0.435934	0.900443	0.661058	0.539801	0	0
0.66	-1.03824	1.35207	2.63452	0.626809	0.400138	1.01655	0.593212	-0.285253	0.264875	1.45593	-0.328169	0	0	0.201581	0.178434	-0.304603	0.346798	-0.181365	0	0	-0.105866	-0.225046	0.195649	0.00338281	-0.495314	0.875434	0.743083	0.58481	0	0	0.135878	-0.435696	0.902804	0.659918	0.536168	0	0
0.67	-1.03258	1.35409	2.63071	0.624983	0.409289	1.01722	0.610088	-0.27427	0.270142	1.44255	-0.31377	0	0	0.186923	0.177899	-0.307218	0.339123	-0.179966	0	0	-0.106326	-0.222123	0.19249	0.00564196	-0.496963	0.873902	0.746105	0.586516	0	0	0.139327	-0.435519	0.904763	0.659238	0.533101	0	0
0.68	-1.02632	1.35616	2.62619	0.623243	0.418365	1.01773	0.626631	-0.263124	0.275113	1.42718	-0.29865	0	0	0.17271	0.177088	-0.31026	0.332047	-0.177541	0	0	-0.107081	-0.219178	0.189637	0.00779715	-0.498695	0.872064	0.749448	0.587452	0	0	0.142604	-0.435318	0.905656	0.658877	0.530842	0	0
0.69	-1.01968	1.35817	2.62149	0.621601	0.427365	1.01807	0.642765	-0.252457	0.27981	1.40968	-0.286772	0	0	0.15917	0.176271	-0.311737	0.326134	-0.175134	0	0	-0.107909	-0.216344	0.186744	0.0101174	-0.500395	0.87027	0.752818	0.587713	0	0	0.145521	-0.435498	0.905592	0.659278	0.529857	0	0
0.7	-1.01231	1.35983	2.61576	0.620064	0.436253	1.01819	0.658757	-0.241941	0.284663	1.39051	-0.278285	0	0	0.146939	0.175428	-0.313215	0.322236	-0.172877	0	0	-0.107302	-0.213642	0.181324	0.0184304	-0.502745	0.88211	0.75441	0.578661	0	0	0.144983	-0.436508	0.900462	0.660949	0.530482	0	0
0.71	-1.00901	1.36133	2.61267	0.618666	0.445148	1.0182	0.672753	-0.231224	0.29015	1.36951	-0.26155	0	0	0.133515	0.175249	-0.315275	0.317192	-0.169045	0	0	-0.11073	-0.212036	0.182837	0.0146685	-0.504757	0.865139	0.761302	0.591755	0	0	0.149907	-0.435419	0.898365	0.661989	0.535632	0	0
0.72	-1.005	1.36241	2.60907	0.617192	0.454148	1.01798	0.686309	-0.222169	0.295369	1.34718	-0.243975	0	0	0.120678	0.175453	-0.317006	0.312643	-0.163869	0	0	-0.108538	-0.210054	0.185925	0.0155291	-0.508324	0.86855	0.764623	0.578823	0	0	0.161466	-0.436114	0.926635	0.65901	0.508434	0	0
0.73	-0.998983	1.36311	2.60411	0.615713	0.463158	1.01759	0.699647	-0.214577	0.299875	1.32332	-0.229537	0	0	0.109036	0.175752	-0.317206	0.309123	-0.159392	0	0	-0.108395	-0.20857	0.18516	0.0177913	-0.510765	0.869394	0.767886	0.57762	0	0	0.164839	-0.436031	0.929115	0.659334	0.506458	0	0
0.74	-0.99368	1.36331	2.59982	0.614349	0.472187	1.01707	0.71237	-0.207816	0.304523	1.29824	-0.21673	0	0	0.0979542	0.17639	-0.317057	0.30638	-0.15516	0	0	-0.108244	-0.207788	0.184601	0.0198909	-0.512748	0.870087	0.770747	0.57577	0	0	0.168353	-0.436091	0.931514	0.659718	0.504536	0	0
0.75	-0.988484	1.36319	2.59553	0.613065	0.481244	1.0164	0.724457	-0.201578	0.309578	1.27185	-0.204415	0	0	0.0872429	0.177136	-0.316911	0.304111	-0.150324	0	0	-0.107979	-0.207441	0.184492	0.0216753	-0.514643	0.870679	0.773576	0.572937	0	0	0.172139	-0.436262	0.934483	0.660154	0.503112	0	0
0.76	-0.982488	1.36264	2.59037	0.611831	0.490324	1.01559	0.7361	-0.195923	0.315054	1.24393	-0.192343	0	0	0.076889	0.178148	-0.316178	0.301769	-0.145333	0	0	-0.107371	-0.207469	0.184781	0.0229767	-0.516559	0.870776	0.776615	0.569644	0	0	0.175706	-0.436516	0.937034	0.660891	0.502218	0	0
0.77	-0.975752	1.36161	2.58427	0.610672	0.499476	1.01464	0.747268	-0.190725	0.320655	1.21526	-0.179448	0	0	0.0668044	0.179637	-0.31508	0.298963	-0.140503	0	0	-0.106371	-0.207949	0.185234	0.0240529	-0.518199	0.870552	0.779491	0.566738	0	0	0.178928	-0.436706	0.939084	0.661369	0.502259	0	0
0.78	-0.968457	1.36019	2.57718	0.609596	0.508711	1.01359	0.757879	-0.185537	0.325763	1.1861	-0.167499	0	0	0.0571232	0.181337	-0.315083	0.296251	-0.13755	0	0	-0.105105	-0.208688	0.184689	0.0264707	-0.519519	0.872265	0.781595	0.567379	0	0	0.179525	-0.437034	0.935396	0.662757	0.506668	0	0
0.79	-0.961886	1.35843	2.57001	0.608642	0.517966	1.01239	0.768407	-0.180529	0.331046	1.15654	-0.153388	0	0	0.0476151	0.183293	-0.315379	0.293759	-0.133638	0	0	-0.103244	-0.209699	0.18669	0.0269297	-0.521283	0.872226	0.784518	0.565559	0	0	0.182592	-0.437366	0.938542	0.663669	0.505138	0	0
0.8	-0.953061	1.35592	2.55991	0.60781	0.527203	1.01096	0.77988	-0.175945	0.336145	1.12646	-0.13976	0	0	0.0397632	0.185209	-0.316364	0.292786	-0.129175	0	0	-0.100589	-0.211149	0.189532	0.0265536	-0.522867	0.870227	0.787596	0.56203	0	0	0.185353	-0.437693	0.941009	0.664753	0.503344	0	0
0.81	-0.939462	1.35274	2.54663	0.606799	0.536668	1.00939	0.790889	-0.172463	0.340733	1.0954	-0.124889	0	0	0.0336537	0.186734	-0.316812	0.293292	-0.123155	0	0	-0.097085	-0.212424	0.18978	0.026242	-0.523715	0.868013	0.790056	0.56363	0	0	0.184177	-0.437593	0.93388	0.666245	0.509824	0	0
0.82	-0.926774	1.34923	2.53351	0.605869	0.54621	1.00774	0.800625	-0.168694	0.344652	1.06296	-0.110008	0	0	0.0277896	0.188661	-0.317484	0.294027	-0.118103	0	0	-0.0919957	-0.213826	0.193633	0.0232199	-0.524944	0.863919	0.792505	0.565261	0	0	0.189063	-0.437974	0.945554	0.665493	0.499054	0	0
0.83	-0.913697	1.34524	2.51965	0.605016	0.555823	1.00603	0.810281	-0.165252	0.34942	1.02995	-0.0982114	0	0	0.0225669	0.190734	-0.318664	0.294783	-0.115711	0	0	-0.0867589	-0.215493	0.193857	0.0248188	-0.526043	0.866996	0.793915	0.563614	0	0	0.186884	-0.438774	0.940238	0.667534	0.501815	0	0
0.84	-0.900128	1.34087	2.50496	0.604258	0.56551	1.00418	0.819897	-0.162175	0.354166	0.997007	-0.0863395	0	0	0.0182919	0.192626	-0.320947	0.29701	-0.111954	0	0	-0.0809914	-0.2172	0.196304	0.0229785	-0.527151	0.864057	0.796468	0.562676	0	0	0.187091	-0.43961	0.941039	0.669269	0.500557	0	0
0.85	-0.886135	1.33624	2.48979	0.603533	0.5753	1.00224	0.828769	-0.159203	0.35801	0.964197	-0.074185	0	0	0.0143751	0.194502	-0.323306	0.299576	-0.107819	0	0	-0.0747585	-0.218828	0.198966	0.0207298	-0.528183	0.86119	0.798996	0.56261	0	0	0.186719	-0.440466	0.941025	0.671262	0.500086	0	0
0.86	-0.872238	1.33137	2.47487	0.602818	0.585218	1.00022	0.837263	-0.156949	0.361596	0.932328	-0.0609598	0	0	0.0109196	0.196306	-0.325692	0.303059	-0.103166	0	0	-0.0681431	-0.220476	0.201356	0.0183598	-0.529176	0.858939	0.801508	0.563889	0	0	0.185535	-0.441323	0.94013	0.67324	0.500246	0	0
0.87	-0.85905	1.32663	2.46072	0.602162	0.595276	0.998139	0.845199	-0.154762	0.364772	0.903218	-0.0444602	0	0	0.00740068	0.197822	-0.328195	0.306998	-0.0984666	0	0	-0.061534	-0.221984	0.203383	0.0160157	-0.530218	0.856321	0.803986	0.565312	0	0	0.183532	-0.442189	0.93822	0.675158	0.501079	0	0
0.88	-0.847837	1.32234	2.44826	0.601634	0.605448	0.99606	0.851817	-0.152205	0.367774	0.876496	-0.0247939	0	0	0.00351083	0.199039	-0.330951	0.311458	-0.0939566	0	0	-0.055675	-0.223281	0.205498	0.0135649	-0.531372	0.853668	0.806944	0.566375	0	0	0.181209	-0.443147	0.935626	0.677342	0.502057	0	0
0.89	-0.83808	1.31854	2.43724	0.601187	0.615787	0.993995	0.856983	-0.149712	0.370575	0.851349	-0.0047202	0	0	-0.000495086	0.199733	-0.334253	0.31697	-0.0899448	0	0	-0.0504293	-0.224186	0.207643	0.0109181	-0.532552	0.851356	0.810081	0.567089	0	0	0.178787	-0.44407	0.932821	0.679419	0.503061	0	0
0.9	-0.826152	1.31524	2.42622	0.600562	0.626526	0.991928	0.86174	-0.147957	0.370365	0.831173	0.012958	0	0	-0.00428323	0.199201	-0.336049	0.323929	-0.08625	0	0	-0.0446751	-0.224125	0.20769	0.00782416	-0.533435	0.850045	0.812777	0.569424	0	0	0.175365	-0.445148	0.929935	0.681138	0.504041	0	0
0.91	-0.815954	1.31304	2.418	0.599866	0.637582	0.989955	0.865581	-0.146338	0.36798	0.817336	0.028052	0	0	-0.00939639	0.197712	-0.33732	0.331712	-0.0821588	0	0	-0.0396975	-0.223291	0.20636	0.00465918	-0.534526	0.848877	0.815624	0.572434	0	0	0.170911	-0.44638	0.926152	0.683198	0.5054	0	0
0.92	-0.808008	1.31186	2.41279	0.599113	0.648965	0.988073	0.86885	-0.144784	0.36406	0.811426	0.0410795	0	0	-0.0160269	0.195447	-0.338654	0.339992	-0.0766133	0	0	-0.0366176	-0.221968	0.200271	0.00522571	-0.53574	0.852746	0.8184	0.574697	0	0	0.158603	-0.447584	0.903094	0.688391	0.523133	0	0
0.93	-0.806471	1.31203	2.41368	0.598517	0.660637	0.986229	0.871858	-0.142266	0.360848	0.817817	0.0549708	0	0	-0.0247694	0.192285	-0.343212	0.350056	-0.070649	0	0	-0.0345248	-0.220578	0.201949	-0.003936	-0.537961	0.843208	0.825108	0.576278	0	0	0.158486	-0.4495	0.910084	0.691382	0.516915	0	0
0.94	-0.80831	1.31344	2.41873	0.597932	0.67264	0.98456	0.873327	-0.139399	0.35843	0.831785	0.0605621	0	0	-0.0359739	0.188773	-0.345367	0.358464	-0.0683307	0	0	-0.0336461	-0.218697	0.200087	-0.0093987	-0.540019	0.840597	0.830559	0.576863	0	0	0.154101	-0.451618	0.908296	0.695262	0.518046	0	0
0.95	-0.81176	1.31589	2.4257	0.597525	0.684912	0.98295	0.873952	-0.135374	0.356151	0.853236	0.0594712	0	0	-0.0481326	0.183843	-0.347907	0.367969	-0.0665793	0	0	-0.0335132	-0.216334	0.19785	-0.0151619	-0.541698	0.837658	0.835853	0.577189	0	0	0.149234	-0.454027	0.906113	0.69924	0.519298	0	0
0.96	-0.816549	1.31898	2.43398	0.597272	0.697412	0.981357	0.873355	-0.130685	0.353468	0.879523	0.0531472	0	0	-0.0606031	0.177767	-0.351486	0.379051	-0.065163	0	0	-0.0338373	-0.213643	0.195344	-0.0210144	-0.542999	0.834844	0.84091	0.577843	0	0	0.143653	-0.456685	0.903039	0.703347	0.521058	0	0
0.97	-0.823668	1.32277	2.44448	0.59708	0.710183	0.979848	0.870286	-0.126372	0.35054	0.906791	0.0450721	0	0	-0.0739281	0.17091	-0.355873	0.391051	-0.0648001	0	0	-0.0347612	-0.210626	0.192762	-0.0269319	-0.544189	0.832612	0.845695	0.578447	0	0	0.137421	-0.459346	0.899198	0.707417	0.523185	0	0
0.98	-0.83318	1.32686	2.45731	0.596963	0.723169	0.97852	0.864245	-0.122422	0.347811	0.930804	0.0378309	0	0	-0.0888094	0.165087	-0.355189	0.399685	-0.0663493	0	0	-0.0346858	-0.207495	0.192191	-0.0339765	-0.544658	0.83061	0.848634	0.576489	0	0	0.135121	-0.462153	0.906925	0.709092	0.515584	0	0
0.99	-0.843325	1.3313	2.47001	0.596987	0.736341	0.977216	0.858625	-0.117403	0.345931	0.955229	0.031367	0	0	-0.102091	0.157165	-0.359874	0.413549	-0.0687064	0	0	-0.0359349	-0.204173	0.191013	-0.0410968	-0.545125	0.826861	0.852673	0.578561	0	0	0.129429	-0.46479	0.904913	0.712652	0.516095	0	0
1	-0.851997	1.33478	2.48032	0.597132	0.749561	0.975852	0.856151	-0.111838	0.346081	0.978716	0.0183839	0	0	-0.112958	0.149332	-0.36495	0.429778	-0.0723097	0	0	-0.0357668	-0.201334	0.19041	-0.0480882	-0.545327	0.823674	0.8565	0.581191	0	0	0.12287	-0.467383	0.901645	0.716026	0.5173	0	0
1.01	-0.857483	1.33722	2.48655	0.597457	0.762786	0.974452	0.856343	-0.105574	0.34864	1.00092	-0.0014927	0	0	-0.120305	0.141188	-0.370104	0.449616	-0.0773012	0	0	-0.0340394	-0.198921	0.190482	-0.0550856	-0.545112	0.820366	0.860064	0.582216	0	0	0.115755	-0.469806	0.897457	0.718729	0.518999	0	0
1.02	-0.856517	1.33892	2.48596	0.597988	0.776032	0.973101	0.856984	-0.0991013	0.352134	1.02019	-0.0230713	0	0	-0.122607	0.130944	-0.376846	0.475923	-0.0851729	0	0	-0.0316067	-0.196716	0.185228	-0.0549132	-0.543889	0.826829	0.861006	0.582648	0	0	0.0981804	-0.471574	0.86867	0.723653	0.540273	0	0
